<svg width="24" height="24" viewBox="0 0 24 24" fill="none" xmlns="http://www.w3.org/2000/svg">
<g clip-path="url(#clip0)">
<path d="M8.82074 4.64801C8.82074 5.25282 8.82074 7.95233 8.82074 7.95233H6.3999V11.9929H8.82074V23.9999H13.7937V11.9932H17.1307C17.1307 11.9932 17.4433 10.0558 17.5948 7.93743C17.1604 7.93743 13.8125 7.93743 13.8125 7.93743C13.8125 7.93743 13.8125 5.58678 13.8125 5.17476C13.8125 4.76184 14.3547 4.20642 14.8906 4.20642C15.4255 4.20642 16.5544 4.20642 17.6 4.20642C17.6 3.6563 17.6 1.7555 17.6 1.44333e-08C16.2041 1.44333e-08 14.6161 1.44333e-08 13.9161 1.44333e-08C8.69782 -0.000278981 8.82074 4.04427 8.82074 4.64801Z" fill="#F3E485" fill-opacity="0.5"/>
</g>
<defs>
<clipPath id="clip0">
<rect width="23.9999" height="24" fill="white"/>
</clipPath>
</defs>
</svg>
