<svg width="60" height="42" viewBox="0 0 60 42" fill="none" xmlns="http://www.w3.org/2000/svg">
<path d="M21.1998 21.1998C26.8612 21.1998 31.4665 16.5945 31.4665 10.9332C31.4665 5.27184 26.8612 0.666504 21.1998 0.666504C15.5385 0.666504 10.9332 5.27184 10.9332 10.9332C10.9332 16.5945 15.5385 21.1998 21.1998 21.1998ZM21.1998 6.53317C23.6345 6.53317 25.5998 8.4985 25.5998 10.9332C25.5998 13.3678 23.6345 15.3332 21.1998 15.3332C18.7652 15.3332 16.7998 13.3678 16.7998 10.9332C16.7998 8.4985 18.7652 6.53317 21.1998 6.53317ZM21.1998 26.3332C14.3358 26.3332 0.666504 29.7652 0.666504 36.5998V41.7332H41.7332V36.5998C41.7332 29.7652 28.0638 26.3332 21.1998 26.3332ZM7.5305 35.8665C9.9945 34.1652 15.9492 32.1998 21.1998 32.1998C26.4505 32.1998 32.4052 34.1652 34.8692 35.8665H7.5305ZM41.8505 26.5092C45.2532 28.9732 47.5998 32.2585 47.5998 36.5998V41.7332H59.3332V36.5998C59.3332 30.6745 49.0665 27.3012 41.8505 26.5092ZM38.7998 21.1998C44.4612 21.1998 49.0665 16.5945 49.0665 10.9332C49.0665 5.27184 44.4612 0.666504 38.7998 0.666504C37.2158 0.666504 35.7492 1.04784 34.3998 1.69317C36.2478 4.30384 37.3332 7.50117 37.3332 10.9332C37.3332 14.3652 36.2478 17.5625 34.3998 20.1732C35.7492 20.8185 37.2158 21.1998 38.7998 21.1998Z" fill="white"/>
</svg>
