<svg width="48" height="48" viewBox="0 0 48 48" fill="none" xmlns="http://www.w3.org/2000/svg">
<path d="M30 8C38.84 8 46 15.16 46 24C46 32.84 38.84 40 30 40C21.16 40 14 32.84 14 24C14 15.16 21.16 8 30 8ZM30 36C36.62 36 42 30.62 42 24C42 17.38 36.62 12 30 12C23.38 12 18 17.38 18 24C18 30.62 23.38 36 30 36ZM6 24C5.99991 26.4799 6.76941 28.8987 8.20233 30.9227C9.63525 32.9467 11.661 34.4761 14 35.3V39.48C7.1 37.7 2 31.46 2 24C2 16.54 7.1 10.3 14 8.52V12.7C9.34 14.34 6 18.78 6 24Z" fill="white"/>
</svg>
