<svg width="200" height="24" viewBox="0 0 200 24" fill="none" xmlns="http://www.w3.org/2000/svg">
<path fill-rule="evenodd" clip-rule="evenodd" d="M148.948 22.8794C150.351 23.5331 152.034 23.9066 153.81 23.9066C155.493 23.9066 157.083 23.6265 158.672 22.786C160.168 22.1323 161.477 21.2918 162.506 20.1712C163.628 19.144 164.469 17.8366 165.03 16.4358C165.685 14.9416 165.965 13.5409 165.965 11.9533C165.965 10.4591 165.685 8.96498 165.124 7.5642C164.563 6.16342 163.721 4.85603 162.693 3.73541C161.664 2.61479 160.449 1.68093 158.953 1.02724C157.55 0.373541 155.867 0 154.091 0C152.314 0 150.725 0.280156 149.229 0.933852C147.733 1.58755 146.424 2.42802 145.395 3.54864C144.273 4.66926 143.432 5.97665 142.871 7.37743C142.216 8.77821 141.936 10.2724 141.936 11.8599C141.936 13.4475 142.216 14.9416 142.777 16.3424C143.338 17.7432 144.18 19.0506 145.208 20.1712C146.237 21.2918 147.452 22.2257 148.948 22.8794ZM148.761 14.2879C148.481 13.5409 148.387 12.7938 148.387 11.9533C148.387 11.2062 148.481 10.4591 148.761 9.71206C148.948 8.96498 149.229 8.31128 149.696 7.75097C150.164 7.19066 150.725 6.72374 151.379 6.35019C152.034 5.97665 152.875 5.78988 153.81 5.78988C154.652 5.78988 155.493 5.97665 156.148 6.35019C156.802 6.72374 157.363 7.19066 157.831 7.75097C158.298 8.31128 158.672 8.96498 158.859 9.71206C159.14 10.4591 159.233 11.2062 159.233 12.0467C159.233 12.7938 159.14 13.5409 158.953 14.2879C158.766 15.035 158.485 15.6887 158.018 16.249C157.55 16.8093 156.989 17.2763 156.335 17.6498C155.68 18.0233 154.839 18.2101 153.904 18.2101C152.969 18.2101 152.127 18.0233 151.473 17.6498C150.818 17.2763 150.257 16.8093 149.79 16.249C149.322 15.6887 148.948 15.035 148.761 14.2879ZM120.15 7.5642C119.589 8.8716 119.308 10.3658 119.308 11.7665C119.308 13.2607 119.589 14.7549 119.963 16.249C120.524 17.7432 121.365 19.0506 122.394 20.1712C123.422 21.3852 124.638 22.3191 126.134 22.9728C127.536 23.6265 129.126 24 130.902 24C131.931 24 132.959 23.9066 133.988 23.6265C135.11 23.4397 136.045 23.0661 136.98 22.5992C137.915 22.1323 138.663 21.572 139.411 20.9183C140.065 20.2646 140.626 19.4241 141 18.5837L135.764 15.4086C135.577 15.8755 135.297 16.3424 134.923 16.716C134.642 17.0895 134.268 17.463 133.801 17.6498C133.427 17.8366 132.959 18.0233 132.492 18.1167L132.492 18.1167C132.024 18.2101 131.557 18.3035 131.089 18.3035C130.248 18.3035 129.5 18.1167 128.845 17.7432C128.191 17.3696 127.63 16.9027 127.162 16.3424C126.695 15.7821 126.414 15.1284 126.134 14.3813C125.853 13.6342 125.76 12.8872 125.76 12.0467C125.76 11.2996 125.853 10.5525 126.04 9.80545C126.227 9.05837 126.508 8.40467 126.975 7.84436C127.443 7.28405 128.004 6.81712 128.658 6.44358C129.313 6.07004 130.154 5.88327 131.089 5.88327C131.557 5.88327 132.024 5.88327 132.492 5.97665C132.959 6.07004 133.427 6.25681 133.894 6.44358C134.362 6.72374 134.736 7.00389 135.11 7.37743L135.18 7.4708C135.45 7.82784 135.78 8.26365 135.951 8.77821L140.907 5.22957C140.065 3.64202 138.85 2.42802 137.167 1.49416C135.577 0.560311 133.52 0.0933852 131.276 0.0933852C129.406 0.0933852 127.723 0.466926 126.227 1.12062C124.825 1.8677 123.516 2.70817 122.487 3.82879C121.459 4.94942 120.711 6.16342 120.15 7.5642ZM168.583 23.7198V0.18677H175.035V23.7198H168.583ZM185.507 23.7198V12.1401L194.857 23.7198H200V0.18677H193.548V12.1401L184.105 0.18677H179.056V23.7198H185.507Z" fill="url(#paint0_linear)"/>
<path fill-rule="evenodd" clip-rule="evenodd" d="M6.73212 12.607H19.2613C19.5418 12.1401 19.7288 11.7665 19.9158 11.2996C20.2899 10.2724 20.4769 9.33852 20.4769 8.2179C20.4769 7.19066 20.2899 6.25681 19.9158 5.22957C19.5418 4.20233 18.9808 3.36187 18.3263 2.61479C17.6718 1.8677 16.8303 1.21401 15.8953 0.747082C14.9603 0.280156 13.9317 0 12.7162 0H6.73212V12.607ZM12.1552 5.6965C12.5292 5.6965 12.9032 5.88327 13.3707 6.25681C13.7447 6.63035 13.9317 7.28405 13.9317 8.2179C13.9317 9.15175 13.7447 9.80545 13.4642 10.179C13.0902 10.5525 12.7162 10.7393 12.3422 10.7393H8.97616V5.6965H12.1552ZM4.76858 23.6265V14.4747H0V16.3424H2.52454V23.6265H4.76858ZM4.76858 0V12.607H0V10.7393H2.52454V0H4.76858ZM6.73212 14.4747V23.6265H8.97616V16.3424H12.8097C13.9317 16.3424 14.9603 16.1556 15.8953 15.6887C16.5498 15.4086 17.2043 14.9416 17.6718 14.4747H6.73212ZM23.0014 0.18677V23.7198H40.1122V18.1167H29.453V0.18677H23.0014ZM56.288 0.18677H50.3974L42.2627 23.7198H48.9014L50.3039 19.144H56.5685L57.971 23.7198H64.5161L56.288 0.18677ZM53.3894 7.47082L55.4465 14.7549H51.2389L53.3894 7.47082ZM82.6555 5.78988H75.9233V23.7198H69.4717V5.78988H62.6461V0.18677H82.6555V5.78988ZM84.993 0.18677V23.7198H91.4446V0.18677H84.993ZM102.01 12.1401V23.7198H95.5587V0.18677H100.608L110.051 12.1401V0.18677H116.503V23.7198H111.36L102.01 12.1401Z" fill="url(#paint1_linear)"/>
<defs>
<linearGradient id="paint0_linear" x1="162.768" y1="0" x2="162.768" y2="23.9066" gradientUnits="userSpaceOnUse">
<stop stop-color="#F3E485"/>
<stop offset="1" stop-color="#B18145"/>
</linearGradient>
<linearGradient id="paint1_linear" x1="68.8172" y1="0" x2="68.8172" y2="23.9066" gradientUnits="userSpaceOnUse">
<stop stop-color="#F0F0F0"/>
<stop offset="1" stop-color="#999797"/>
</linearGradient>
</defs>
</svg>
