<svg width="90" height="90" viewBox="0 0 90 90" fill="none" xmlns="http://www.w3.org/2000/svg">
<circle cx="45" cy="45" r="44.5" stroke="white" stroke-opacity="0.38"/>
<path fill-rule="evenodd" clip-rule="evenodd" d="M65.7258 44.2033H40.7378V19.3459H52.4755C54.7444 19.3459 56.8318 19.824 58.7679 20.7501C60.6889 21.6913 62.3376 22.9013 63.7141 24.425C65.0905 25.9487 66.1644 27.6666 66.951 29.6235C67.7375 31.5804 68.1308 33.5373 68.1308 35.5092C68.1308 37.5707 67.7527 39.5724 67.0115 41.5293C66.6485 42.4705 66.2249 43.3668 65.7258 44.2033ZM53.973 31.5655C53.1864 30.8783 52.3999 30.5198 51.6133 30.5198H45.2V40.5135H51.9461C52.7326 40.5135 53.4587 40.1401 54.1394 39.423C54.82 38.6911 55.1528 37.3914 55.1528 35.5092C55.1528 33.5822 54.7595 32.2676 53.973 31.5655ZM36.896 47.9827V66.0282H32.4339V51.6874H27.3364V47.9827H36.896ZM36.896 44.2033V19.3459H32.4339V40.5135H27.3364V44.2033H36.896ZM40.7378 66.0282V47.9976H62.6401C61.5813 48.9388 60.3863 49.7305 59.0553 50.3579C57.1645 51.2542 55.0772 51.7024 52.8083 51.7024H45.2151V66.0282H40.7378Z" fill="white"/>
</svg>
