<svg width="24" height="24" viewBox="0 0 24 24" fill="none" xmlns="http://www.w3.org/2000/svg">
<g clip-path="url(#clip0)">
<path d="M21.1483 10.893C20.3777 10.0909 19.5144 10.0875 19.118 10.0414C16.2845 9.83887 12.0347 9.83887 12.0347 9.83887H12.0253C12.0253 9.83887 7.77541 9.83887 4.93929 10.0414C4.54404 10.0875 3.68229 10.0912 2.91091 10.893C2.30416 11.505 2.10579 12.8906 2.10579 12.8906C2.10579 12.8906 1.90479 14.5192 1.90479 16.1475V17.6749C1.90479 19.3027 2.10579 20.9321 2.10579 20.9321C2.10579 20.9321 2.30416 22.3177 2.91091 22.9275C3.68229 23.7296 4.69329 23.7045 5.14291 23.7881C6.76441 23.943 12.0298 23.9899 12.0298 23.9899C12.0298 23.9899 16.2849 23.9839 19.1184 23.7791C19.5148 23.7337 20.378 23.7292 21.1487 22.9275C21.7558 22.3177 21.9538 20.9321 21.9538 20.9321C21.9538 20.9321 22.1548 19.3027 22.1548 17.6749V16.1475C22.1548 14.5192 21.9538 12.8906 21.9538 12.8906C21.9538 12.8906 21.7554 11.505 21.1483 10.893ZM6.36691 21.2827H5.00116V13.482H3.55704V12.2047H7.83729V13.482H6.36728V21.2827H6.36691ZM11.2089 21.2827H9.97966V20.5444C9.49254 21.1027 9.02716 21.3772 8.57641 21.3772C8.18116 21.3772 7.90854 21.2152 7.78441 20.8725C7.71766 20.6677 7.67716 20.3441 7.67716 19.8664V14.5185H8.90528V19.4985C8.90528 19.7854 8.90528 19.935 8.91428 19.9747C8.94541 20.1649 9.04029 20.2631 9.20341 20.2631C9.45016 20.2631 9.70628 20.073 9.97929 19.6882V14.5185H11.2085V21.2827H11.2089ZM15.8739 19.2544C15.8739 19.878 15.8327 20.3291 15.7498 20.616C15.5855 21.12 15.2574 21.3772 14.7699 21.3772C14.3319 21.3772 13.9097 21.1346 13.4998 20.6276V21.2827H12.2709V12.2047H13.4998V15.1691C13.8958 14.682 14.3169 14.4356 14.7699 14.4356C15.257 14.4356 15.5852 14.6936 15.7498 15.1991C15.8327 15.4725 15.8739 15.9184 15.8739 16.5596V19.2544ZM20.441 18.1234H17.9848V19.323C17.9848 19.9496 18.1907 20.2627 18.6122 20.2627C18.9144 20.2627 19.0903 20.0977 19.1608 19.7711C19.1717 19.7044 19.1882 19.4306 19.1882 18.939H20.441V19.1186C20.441 19.5127 20.4249 19.7846 20.4144 19.9084C20.3739 20.1795 20.2764 20.4251 20.1272 20.6415C19.7874 21.1335 19.2834 21.3765 18.641 21.3765C17.9994 21.3765 17.5108 21.1447 17.156 20.6816C16.895 20.3434 16.7619 19.8094 16.7619 19.0912V16.7216C16.7619 15.999 16.8812 15.4717 17.1414 15.1282C17.4962 14.6655 17.9848 14.4349 18.6122 14.4349C19.2283 14.4349 19.7173 14.6651 20.0608 15.1282C20.3177 15.4717 20.4414 15.999 20.4414 16.7216V18.1234H20.441Z" fill="#F3E485"/>
<path d="M8.78838 9.16273V5.44723L10.4429 -0.00976562H9.05163L8.113 3.59211L7.13613 -0.00976562H5.6875C5.97888 0.840734 6.28038 1.69423 6.571 2.54623C7.01125 3.82536 7.28725 4.78948 7.4125 5.44686V9.16236H8.78838V9.16273Z" fill="#F3E485"/>
<path d="M12.0176 9.25649C12.6386 9.25649 13.1208 9.02249 13.4643 8.55749C13.7238 8.21624 13.8502 7.67774 13.8502 6.94987V4.55474C13.8502 3.82537 13.7238 3.29212 13.4643 2.94637C13.1204 2.47762 12.6386 2.24512 12.0176 2.24512C11.3973 2.24512 10.9139 2.47762 10.5723 2.94637C10.3072 3.29212 10.1846 3.82537 10.1846 4.55474V6.94987C10.1846 7.67774 10.3072 8.21624 10.5723 8.55749C10.9139 9.02249 11.3973 9.25649 12.0176 9.25649ZM11.4247 4.30687C11.4247 3.67462 11.6174 3.35849 12.0176 3.35849C12.4158 3.35849 12.6074 3.67499 12.6074 4.30687V7.18274C12.6074 7.81537 12.4158 8.13149 12.0176 8.13149C11.6174 8.13149 11.4247 7.81499 11.4247 7.18274V4.30687Z" fill="#F3E485"/>
<path d="M18.3705 9.1628V2.32617H17.13V7.5518C16.8551 7.93955 16.5949 8.1323 16.347 8.1323C16.1801 8.1323 16.0815 8.03292 16.0556 7.84242C16.0399 7.80155 16.0399 7.65117 16.0399 7.36055V2.32617H14.8027V7.73292C14.8027 8.2163 14.8432 8.5433 14.9126 8.74955C15.0371 9.09455 15.3131 9.25692 15.7125 9.25692C16.164 9.25692 16.635 8.98242 17.1304 8.41692V9.1628H18.3705Z" fill="#F3E485"/>
<path d="M14.1131 15.54C13.9099 15.54 13.7051 15.6364 13.5 15.8363V19.9609C13.7051 20.1649 13.9099 20.2632 14.1131 20.2632C14.466 20.2632 14.6468 19.9609 14.6468 19.3504V16.4637C14.6471 15.8517 14.466 15.54 14.1131 15.54Z" fill="#F3E485"/>
<path d="M18.6001 15.54C18.1903 15.54 17.9844 15.8517 17.9844 16.4783V17.1049H19.2121V16.4783C19.2125 15.8517 19.0074 15.54 18.6001 15.54Z" fill="#F3E485"/>
</g>
<defs>
<clipPath id="clip0">
<rect width="24" height="24" fill="white"/>
</clipPath>
</defs>
</svg>
